
<svg width="642px" height="74px" viewBox="0 0 642 74">
    <g id="Page-1" stroke="none" stroke-width="1" fill="none" fill-rule="evenodd">
        <g id="Lavagellogo-(2)" fill="#FFFFFF">
            <path d="M262.3,63 L336.4,63 L342.9,71.9 C344.1,73.6 346.2,73.6 347.7,72.5 L349.1,71.5 C350.5,70.5 350.5,68.5 349.5,67.1 L304.4,4.7 C303.9,3.9 302.8,3.5 301.9,3.5 L296.9,3.5 C296,3.5 294.9,4 294.4,4.7 L249.3,67.1 C248.3,68.5 248.2,70.4 249.7,71.5 L251.1,72.5 C252.6,73.6 254.7,73.5 255.9,71.9 L262.3,63 Z M267.9,55.3 L299.4,11.8 L330.9,55.3 L267.9,55.3 Z M222.1,64.3 L264.1,6.2 C264.7,5.3 266.3,4.8 267.4,4.8 L272.6,4.8 C274.5,4.8 275.5,6.4 274.3,8.1 L229,70.8 C226.5,74.3 217.9,74.3 215.4,70.8 L170,8.1 C168.8,6.4 169.8,4.8 171.7,4.8 L176.9,4.8 C178,4.8 179.5,5.3 180.2,6.2 L222.1,64.3 Z M108.6,63 L182.7,63 L189.2,71.9 C190.4,73.6 192.5,73.6 194,72.5 L195.4,71.5 C196.8,70.5 196.8,68.5 195.8,67.1 L150.7,4.7 C150.2,3.9 149.1,3.5 148.2,3.5 L143.2,3.5 C142.3,3.5 141.2,4 140.7,4.7 L95.6,67.1 C94.6,68.5 94.5,70.4 96,71.5 L97.4,72.5 C98.9,73.6 101,73.5 102.2,71.9 L108.6,63 Z M114.2,55.3 L145.7,11.8 L177.2,55.3 L114.2,55.3 Z M0.6,6.2 C0.6,13.9 0.6,51 0.6,56.1 C0.6,61.8 4.2,71.4 26,71.4 C44.9,71.4 74.5,71.4 82.2,71.4 C83.2,71.4 84,70.5 84,69.4 L84,66.2 C84,65.3 83.3,64.3 82.1,64.3 C73.5,64.3 37.4,64.3 26,64.3 C13,64.3 10.7,59.6 10.7,56.1 C10.7,54 10.7,14.1 10.7,6.2 C10.7,5.4 10,4.8 8.8,4.8 L2.4,4.8 C1.3,4.8 0.6,5.4 0.6,6.2 Z" id="XMLID_70_"></path>
            <g id="XMLID_54_" transform="translate(360.000000, 0.000000)">
                <path d="M75.5,36.2 L58.9,36.2 C56.6,36.2 54.1,35.5 54.1,32.8 C54.1,31.3 54.1,29.9 54.1,28.4 C54.1,26.2 55,24.4 57.5,24.4 L84,24.4 C86.3,24.4 88.5,25.3 88.5,28 L88.5,55.3 C88.5,59.7 86.7,63.9 83.4,66.9 C78.9,71 72.7,72.3 66.9,72.3 L24.8,72.3 C18.5,72.3 11.8,70.9 6.7,67 C3.1,64.2 0.5,60.1 0.5,55.4 L0.5,17.5 C0.5,14.7 1.3,12.1 3,9.9 C7.9,3.3 19.5,0.9 27.2,0.9 L43.6,0.9 C45.4,0.9 47.8,1.1 47.8,3.4 L47.8,8.6 C47.8,10.4 46,11.7 44.3,11.7 L27.5,11.7 C24.2,11.7 20.5,12.3 17.6,14 C16.3,14.7 14.3,16.3 14.3,17.9 L14.3,55.3 C14.3,55.8 14.4,56.2 14.6,56.6 C15.9,59.9 21.3,61 24.4,61 L63.6,61 C66.6,61 70.6,60.6 73.2,58.9 C74.5,58.1 75.6,56.8 75.6,55.2 L75.6,36.2 L75.5,36.2 Z M107.7,31.1 L139,31.1 C147.6,31.1 147.6,42.4 139,42.4 L107.7,42.4 L107.7,55.3 C107.7,55.8 107.8,56.2 108,56.6 C109.3,59.9 114.7,61 117.8,61 L171,61 C172.6,61 174.3,62.6 174.3,64.2 L174.3,69 C174.3,70.6 172.6,72.2 171,72.2 L118.2,72.2 C111.9,72.2 105.2,70.8 100.1,66.9 C96.5,64.1 94,60 94,55.3 L94,17.5 C94,14.7 94.8,12.1 96.5,9.9 C101.4,3.3 113,0.9 120.7,0.9 L171,0.9 C172.5,0.9 173.7,2.6 173.7,4 L173.7,8.6 C173.7,10 172.5,11.7 171,11.7 L120.9,11.7 C117.6,11.7 113.9,12.3 111,14 C109.7,14.7 107.7,16.3 107.7,17.9 L107.7,31.1 Z M180.8,4.8 C180.8,2.9 182.7,0.8 184.6,0.8 L190.7,0.8 C192.6,0.8 194.5,2.9 194.5,4.8 L194.5,55.3 C194.5,55.8 194.6,56.2 194.8,56.6 C196.1,59.9 201.5,61 204.6,61 L257.8,61 C259.4,61 261.1,62.6 261.1,64.2 L261.1,69 C261.1,70.6 259.4,72.2 257.8,72.2 L205,72.2 C198.7,72.2 192,70.8 187,66.9 C183.4,64.1 180.9,60 180.9,55.3 L180.9,4.8 L180.8,4.8 Z" id="XMLID_29_"></path>
            </g>
            <path d="M361.3,17.5 L361.3,55.3 C361.3,63 369.1,71.4 384.7,71.4 L426.8,71.4 C441.6,71.4 447.7,63 447.7,55.3 L447.7,28 C447.7,25.9 446.1,25.2 444,25.2 L417.5,25.2 C414.9,25.2 414.9,27.7 414.9,28.4 C414.9,29 414.9,31.7 414.9,32.8 C414.9,33.9 415.5,35.4 418.9,35.4 L436.3,35.4 L436.3,55.3 C436.3,58.1 433.3,61.9 423.6,61.9 L384.4,61.9 C379.2,61.9 373.5,59.5 373.5,55.3 L373.5,17.9 C373.5,14.9 378.8,10.9 387.5,10.9 L404.3,10.9 C405.8,10.9 407,9.8 407,8.6 L407,3.4 C407,2.1 406.1,1.7 403.6,1.7 L387.2,1.7 C380.5,1.6 361.3,4.1 361.3,17.5 Z M454.7,17.5 L454.7,55.3 C454.7,63 462.5,71.4 478.1,71.4 L531,71.4 C532.1,71.4 533.5,70.2 533.5,69 L533.5,64.2 C533.5,63.1 532.2,61.8 531,61.8 L477.8,61.8 C472.6,61.8 466.9,59.4 466.9,55.2 L466.9,41.6 L499,41.6 C506.5,41.6 506.5,31.9 499,31.9 L466.9,31.9 L466.9,17.9 C466.9,14.9 472.2,10.9 481,10.9 L531,10.9 C532,10.9 532.9,9.6 532.9,8.6 L532.9,4 C532.9,3 532,1.7 531,1.7 L480.6,1.7 C473.9,1.6 454.7,4.1 454.7,17.5 Z M541.6,4.8 L541.6,55.3 C541.6,63 549.4,71.4 565,71.4 L617.8,71.4 C618.9,71.4 620.3,70.2 620.3,69 L620.3,64.2 C620.3,63.1 619,61.8 617.8,61.8 L564.6,61.8 C559.4,61.8 553.7,59.4 553.7,55.2 L553.7,41.6 L553.7,31.9 L553.7,4.9 C553.7,3.4 552.1,1.7 550.7,1.7 L544.6,1.7 C543.2,1.6 541.6,3.4 541.6,4.8 Z" id="XMLID_50_"></path>
            <g id="XMLID_13_" transform="translate(621.000000, 41.000000)" font-family="Helvetica" font-size="26.894" font-weight="normal">
                <text id="XMLID_27_">
                    <tspan x="0.7214" y="26.3933">®</tspan>
                </text>
            </g>
        </g>
    </g>
</svg>